<?xml version="1.0" encoding="UTF-8" standalone="no"?>
<!DOCTYPE svg PUBLIC "-//W3C//DTD SVG 1.1//EN"
 "http://www.w3.org/Graphics/SVG/1.1/DTD/svg11.dtd">
<!-- Generated by graphviz version 2.43.0 (0)
 -->
<!-- Title: snakemake_dag Pages: 1 -->
<svg width="536pt" height="692pt"
 viewBox="0.00 0.00 536.00 692.00" xmlns="http://www.w3.org/2000/svg" xmlns:xlink="http://www.w3.org/1999/xlink">
<g id="graph0" class="graph" transform="scale(1 1) rotate(0) translate(4 688)">
<title>snakemake_dag</title>
<polygon fill="white" stroke="transparent" points="-4,4 -4,-688 532,-688 532,4 -4,4"/>
<!-- 0 -->
<g id="node1" class="node">
<title>0</title>
<path fill="none" stroke="#56d8b1" stroke-width="2" d="M337.5,-36C337.5,-36 307.5,-36 307.5,-36 301.5,-36 295.5,-30 295.5,-24 295.5,-24 295.5,-12 295.5,-12 295.5,-6 301.5,0 307.5,0 307.5,0 337.5,0 337.5,0 343.5,0 349.5,-6 349.5,-12 349.5,-12 349.5,-24 349.5,-24 349.5,-30 343.5,-36 337.5,-36"/>
<text text-anchor="middle" x="322.5" y="-15.5" font-family="sans" font-size="10.00">all</text>
</g>
<!-- 1 -->
<g id="node2" class="node">
<title>1</title>
<path fill="none" stroke="#569ad8" stroke-width="2" d="M266.5,-108C266.5,-108 236.5,-108 236.5,-108 230.5,-108 224.5,-102 224.5,-96 224.5,-96 224.5,-84 224.5,-84 224.5,-78 230.5,-72 236.5,-72 236.5,-72 266.5,-72 266.5,-72 272.5,-72 278.5,-78 278.5,-84 278.5,-84 278.5,-96 278.5,-96 278.5,-102 272.5,-108 266.5,-108"/>
<text text-anchor="middle" x="251.5" y="-87.5" font-family="sans" font-size="10.00">pack</text>
</g>
<!-- 1&#45;&gt;0 -->
<g id="edge1" class="edge">
<title>1&#45;&gt;0</title>
<path fill="none" stroke="grey" stroke-width="2" d="M269.05,-71.7C277.73,-63.14 288.36,-52.66 297.85,-43.3"/>
<polygon fill="grey" stroke="grey" stroke-width="2" points="300.49,-45.62 305.15,-36.1 295.57,-40.63 300.49,-45.62"/>
</g>
<!-- 2 -->
<g id="node3" class="node">
<title>2</title>
<path fill="none" stroke="#d85656" stroke-width="2" d="M516,-252C516,-252 449,-252 449,-252 443,-252 437,-246 437,-240 437,-240 437,-228 437,-228 437,-222 443,-216 449,-216 449,-216 516,-216 516,-216 522,-216 528,-222 528,-228 528,-228 528,-240 528,-240 528,-246 522,-252 516,-252"/>
<text text-anchor="middle" x="482.5" y="-231.5" font-family="sans" font-size="10.00">coverage_plots</text>
</g>
<!-- 2&#45;&gt;0 -->
<g id="edge2" class="edge">
<title>2&#45;&gt;0</title>
<path fill="none" stroke="grey" stroke-width="2" d="M471.62,-215.99C459.9,-197.86 440.49,-168.47 422.5,-144 396.32,-108.39 364.08,-68.79 343.41,-43.89"/>
<polygon fill="grey" stroke="grey" stroke-width="2" points="345.96,-41.48 336.87,-36.04 340.58,-45.97 345.96,-41.48"/>
</g>
<!-- 3 -->
<g id="node4" class="node">
<title>3</title>
<path fill="none" stroke="#d88556" stroke-width="2" d="M335,-252C335,-252 272,-252 272,-252 266,-252 260,-246 260,-240 260,-240 260,-228 260,-228 260,-222 266,-216 272,-216 272,-216 335,-216 335,-216 341,-216 347,-222 347,-228 347,-228 347,-240 347,-240 347,-246 341,-252 335,-252"/>
<text text-anchor="middle" x="303.5" y="-231.5" font-family="sans" font-size="10.00">create_reports</text>
</g>
<!-- 3&#45;&gt;1 -->
<g id="edge3" class="edge">
<title>3&#45;&gt;1</title>
<path fill="none" stroke="grey" stroke-width="2" d="M325.21,-215.79C335.26,-206.41 346.14,-193.9 351.5,-180 357.26,-165.07 359.75,-157.71 351.5,-144 337.82,-121.27 310.75,-107.77 288.23,-100.09"/>
<polygon fill="grey" stroke="grey" stroke-width="2" points="289.17,-96.72 278.58,-97.05 287.07,-103.4 289.17,-96.72"/>
</g>
<!-- 4 -->
<g id="node5" class="node">
<title>4</title>
<path fill="none" stroke="#d86e56" stroke-width="2" d="M235,-180C235,-180 164,-180 164,-180 158,-180 152,-174 152,-168 152,-168 152,-156 152,-156 152,-150 158,-144 164,-144 164,-144 235,-144 235,-144 241,-144 247,-150 247,-156 247,-156 247,-168 247,-168 247,-174 241,-180 235,-180"/>
<text text-anchor="middle" x="199.5" y="-159.5" font-family="sans" font-size="10.00">summary_excel</text>
</g>
<!-- 3&#45;&gt;4 -->
<g id="edge14" class="edge">
<title>3&#45;&gt;4</title>
<path fill="none" stroke="grey" stroke-width="2" d="M278.06,-215.88C264.71,-206.89 248.18,-195.76 233.72,-186.03"/>
<polygon fill="grey" stroke="grey" stroke-width="2" points="235.29,-182.87 225.04,-180.19 231.38,-188.68 235.29,-182.87"/>
</g>
<!-- 5 -->
<g id="node6" class="node">
<title>5</title>
<path fill="none" stroke="#b6d856" stroke-width="2" d="M330,-180C330,-180 277,-180 277,-180 271,-180 265,-174 265,-168 265,-168 265,-156 265,-156 265,-150 271,-144 277,-144 277,-144 330,-144 330,-144 336,-144 342,-150 342,-156 342,-156 342,-168 342,-168 342,-174 336,-180 330,-180"/>
<text text-anchor="middle" x="303.5" y="-159.5" font-family="sans" font-size="10.00">krona_graph</text>
</g>
<!-- 3&#45;&gt;5 -->
<g id="edge15" class="edge">
<title>3&#45;&gt;5</title>
<path fill="none" stroke="grey" stroke-width="2" d="M303.5,-215.7C303.5,-207.98 303.5,-198.71 303.5,-190.11"/>
<polygon fill="grey" stroke="grey" stroke-width="2" points="307,-190.1 303.5,-180.1 300,-190.1 307,-190.1"/>
</g>
<!-- 4&#45;&gt;1 -->
<g id="edge4" class="edge">
<title>4&#45;&gt;1</title>
<path fill="none" stroke="grey" stroke-width="2" d="M212.35,-143.7C218.53,-135.39 226.04,-125.28 232.82,-116.14"/>
<polygon fill="grey" stroke="grey" stroke-width="2" points="235.64,-118.22 238.79,-108.1 230.02,-114.04 235.64,-118.22"/>
</g>
<!-- 5&#45;&gt;1 -->
<g id="edge5" class="edge">
<title>5&#45;&gt;1</title>
<path fill="none" stroke="grey" stroke-width="2" d="M290.65,-143.7C284.47,-135.39 276.96,-125.28 270.18,-116.14"/>
<polygon fill="grey" stroke="grey" stroke-width="2" points="272.98,-114.04 264.21,-108.1 267.36,-118.22 272.98,-114.04"/>
</g>
<!-- 6 -->
<g id="node7" class="node">
<title>6</title>
<path fill="none" stroke="#d89c56" stroke-width="2" d="M242.5,-540C242.5,-540 202.5,-540 202.5,-540 196.5,-540 190.5,-534 190.5,-528 190.5,-528 190.5,-516 190.5,-516 190.5,-510 196.5,-504 202.5,-504 202.5,-504 242.5,-504 242.5,-504 248.5,-504 254.5,-510 254.5,-516 254.5,-516 254.5,-528 254.5,-528 254.5,-534 248.5,-540 242.5,-540"/>
<text text-anchor="middle" x="222.5" y="-519.5" font-family="sans" font-size="10.00">assemble</text>
</g>
<!-- 6&#45;&gt;1 -->
<g id="edge6" class="edge">
<title>6&#45;&gt;1</title>
<path fill="none" stroke="grey" stroke-width="2" d="M254.61,-520.04C292.51,-517.1 354.75,-506.29 389.5,-468 416.68,-438.05 408.5,-419.45 408.5,-379 408.5,-379 408.5,-379 408.5,-233 408.5,-189.45 398.34,-174.75 367.5,-144 345.72,-122.29 313.44,-108.54 288.46,-100.5"/>
<polygon fill="grey" stroke="grey" stroke-width="2" points="289.18,-97.06 278.59,-97.5 287.14,-103.76 289.18,-97.06"/>
</g>
<!-- 6&#45;&gt;3 -->
<g id="edge11" class="edge">
<title>6&#45;&gt;3</title>
<path fill="none" stroke="grey" stroke-width="2" d="M232.56,-503.8C238.16,-493.64 244.91,-480.39 249.5,-468 276.22,-395.88 292.54,-306.14 299.53,-262.04"/>
<polygon fill="grey" stroke="grey" stroke-width="2" points="303,-262.51 301.06,-252.1 296.08,-261.44 303,-262.51"/>
</g>
<!-- 7 -->
<g id="node8" class="node">
<title>7</title>
<path fill="none" stroke="#56d86b" stroke-width="2" d="M228,-468C228,-468 181,-468 181,-468 175,-468 169,-462 169,-456 169,-456 169,-444 169,-444 169,-438 175,-432 181,-432 181,-432 228,-432 228,-432 234,-432 240,-438 240,-444 240,-444 240,-456 240,-456 240,-462 234,-468 228,-468"/>
<text text-anchor="middle" x="204.5" y="-447.5" font-family="sans" font-size="10.00">detect_orfs</text>
</g>
<!-- 6&#45;&gt;7 -->
<g id="edge17" class="edge">
<title>6&#45;&gt;7</title>
<path fill="none" stroke="grey" stroke-width="2" d="M218.05,-503.7C216.05,-495.9 213.63,-486.51 211.4,-477.83"/>
<polygon fill="grey" stroke="grey" stroke-width="2" points="214.78,-476.92 208.9,-468.1 208,-478.66 214.78,-476.92"/>
</g>
<!-- 8 -->
<g id="node9" class="node">
<title>8</title>
<path fill="none" stroke="#56b1d8" stroke-width="2" d="M45,-324C45,-324 12,-324 12,-324 6,-324 0,-318 0,-312 0,-312 0,-300 0,-300 0,-294 6,-288 12,-288 12,-288 45,-288 45,-288 51,-288 57,-294 57,-300 57,-300 57,-312 57,-312 57,-318 51,-324 45,-324"/>
<text text-anchor="middle" x="28.5" y="-303.5" font-family="sans" font-size="10.00">qc_plots</text>
</g>
<!-- 6&#45;&gt;8 -->
<g id="edge18" class="edge">
<title>6&#45;&gt;8</title>
<path fill="none" stroke="grey" stroke-width="2" d="M190.46,-507.98C149.9,-489.62 81.47,-451.99 49.5,-396 38.64,-376.98 33.39,-352.62 30.85,-334.2"/>
<polygon fill="grey" stroke="grey" stroke-width="2" points="34.31,-333.63 29.65,-324.12 27.36,-334.46 34.31,-333.63"/>
</g>
<!-- 9 -->
<g id="node10" class="node">
<title>9</title>
<path fill="none" stroke="#56c9d8" stroke-width="2" d="M100.5,-396C100.5,-396 70.5,-396 70.5,-396 64.5,-396 58.5,-390 58.5,-384 58.5,-384 58.5,-372 58.5,-372 58.5,-366 64.5,-360 70.5,-360 70.5,-360 100.5,-360 100.5,-360 106.5,-360 112.5,-366 112.5,-372 112.5,-372 112.5,-384 112.5,-384 112.5,-390 106.5,-396 100.5,-396"/>
<text text-anchor="middle" x="85.5" y="-375.5" font-family="sans" font-size="10.00">stats</text>
</g>
<!-- 6&#45;&gt;9 -->
<g id="edge22" class="edge">
<title>6&#45;&gt;9</title>
<path fill="none" stroke="grey" stroke-width="2" d="M200.38,-504C187.9,-494.02 172.3,-480.87 159.5,-468 139.35,-447.73 118.75,-422.52 104.42,-404.11"/>
<polygon fill="grey" stroke="grey" stroke-width="2" points="107.18,-401.95 98.3,-396.17 101.63,-406.22 107.18,-401.95"/>
</g>
<!-- 12 -->
<g id="node13" class="node">
<title>12</title>
<path fill="none" stroke="#ced856" stroke-width="2" d="M368,-468C368,-468 309,-468 309,-468 303,-468 297,-462 297,-456 297,-456 297,-444 297,-444 297,-438 303,-432 309,-432 309,-432 368,-432 368,-432 374,-432 380,-438 380,-444 380,-444 380,-456 380,-456 380,-462 374,-468 368,-468"/>
<text text-anchor="middle" x="338.5" y="-447.5" font-family="sans" font-size="10.00">realign_reads</text>
</g>
<!-- 6&#45;&gt;12 -->
<g id="edge27" class="edge">
<title>6&#45;&gt;12</title>
<path fill="none" stroke="grey" stroke-width="2" d="M250.88,-503.88C266.04,-494.72 284.91,-483.34 301.24,-473.48"/>
<polygon fill="grey" stroke="grey" stroke-width="2" points="303.26,-476.35 310.01,-468.19 299.64,-470.36 303.26,-476.35"/>
</g>
<!-- 7&#45;&gt;1 -->
<g id="edge7" class="edge">
<title>7&#45;&gt;1</title>
<path fill="none" stroke="grey" stroke-width="2" d="M190.54,-431.62C182.99,-421.63 173.93,-408.59 167.5,-396 116.34,-295.75 82.8,-239.41 142.5,-144 158.1,-119.07 189.15,-105.57 214.13,-98.44"/>
<polygon fill="grey" stroke="grey" stroke-width="2" points="215.27,-101.76 224.06,-95.85 213.5,-94.99 215.27,-101.76"/>
</g>
<!-- 7&#45;&gt;9 -->
<g id="edge24" class="edge">
<title>7&#45;&gt;9</title>
<path fill="none" stroke="grey" stroke-width="2" d="M175.39,-431.88C159.1,-422.29 138.66,-410.27 121.38,-400.11"/>
<polygon fill="grey" stroke="grey" stroke-width="2" points="123.07,-397.04 112.68,-394.99 119.52,-403.07 123.07,-397.04"/>
</g>
<!-- 14 -->
<g id="node15" class="node">
<title>14</title>
<path fill="none" stroke="#59d856" stroke-width="2" d="M228,-396C228,-396 189,-396 189,-396 183,-396 177,-390 177,-384 177,-384 177,-372 177,-372 177,-366 183,-360 189,-360 189,-360 228,-360 228,-360 234,-360 240,-366 240,-372 240,-372 240,-384 240,-384 240,-390 234,-396 228,-396"/>
<text text-anchor="middle" x="208.5" y="-375.5" font-family="sans" font-size="10.00">sans_orfs</text>
</g>
<!-- 7&#45;&gt;14 -->
<g id="edge29" class="edge">
<title>7&#45;&gt;14</title>
<path fill="none" stroke="grey" stroke-width="2" d="M205.49,-431.7C205.93,-423.98 206.46,-414.71 206.95,-406.11"/>
<polygon fill="grey" stroke="grey" stroke-width="2" points="210.45,-406.29 207.52,-396.1 203.46,-405.89 210.45,-406.29"/>
</g>
<!-- 8&#45;&gt;1 -->
<g id="edge8" class="edge">
<title>8&#45;&gt;1</title>
<path fill="none" stroke="grey" stroke-width="2" d="M27.95,-287.81C27.87,-255.19 32.52,-183.98 71.5,-144 109.26,-105.27 173.76,-94.48 214.43,-91.69"/>
<polygon fill="grey" stroke="grey" stroke-width="2" points="214.69,-95.18 224.48,-91.12 214.3,-88.19 214.69,-95.18"/>
</g>
<!-- 9&#45;&gt;1 -->
<g id="edge9" class="edge">
<title>9&#45;&gt;1</title>
<path fill="none" stroke="grey" stroke-width="2" d="M81.73,-359.88C73.57,-318.09 58.89,-209.47 109.5,-144 134.41,-111.78 181.09,-99.15 214.12,-94.2"/>
<polygon fill="grey" stroke="grey" stroke-width="2" points="214.87,-97.63 224.32,-92.84 213.95,-90.69 214.87,-97.63"/>
</g>
<!-- 9&#45;&gt;8 -->
<g id="edge19" class="edge">
<title>9&#45;&gt;8</title>
<path fill="none" stroke="grey" stroke-width="2" d="M71.41,-359.7C64.58,-351.3 56.24,-341.07 48.74,-331.86"/>
<polygon fill="grey" stroke="grey" stroke-width="2" points="51.46,-329.65 42.43,-324.1 46.03,-334.07 51.46,-329.65"/>
</g>
<!-- 10 -->
<g id="node11" class="node">
<title>10</title>
<path fill="none" stroke="#56d882" stroke-width="2" d="M252,-612C252,-612 193,-612 193,-612 187,-612 181,-606 181,-600 181,-600 181,-588 181,-588 181,-582 187,-576 193,-576 193,-576 252,-576 252,-576 258,-576 264,-582 264,-588 264,-588 264,-600 264,-600 264,-606 258,-612 252,-612"/>
<text text-anchor="middle" x="222.5" y="-591.5" font-family="sans" font-size="10.00">filter_hostgen</text>
</g>
<!-- 10&#45;&gt;2 -->
<g id="edge10" class="edge">
<title>10&#45;&gt;2</title>
<path fill="none" stroke="grey" stroke-width="2" d="M264.1,-587.74C333.29,-576.41 464.5,-542.82 464.5,-451 464.5,-451 464.5,-451 464.5,-377 464.5,-336.9 471.65,-290.92 476.94,-262.42"/>
<polygon fill="grey" stroke="grey" stroke-width="2" points="480.42,-262.88 478.86,-252.4 473.54,-261.56 480.42,-262.88"/>
</g>
<!-- 10&#45;&gt;6 -->
<g id="edge16" class="edge">
<title>10&#45;&gt;6</title>
<path fill="none" stroke="grey" stroke-width="2" d="M222.5,-575.7C222.5,-567.98 222.5,-558.71 222.5,-550.11"/>
<polygon fill="grey" stroke="grey" stroke-width="2" points="226,-550.1 222.5,-540.1 219,-550.1 226,-550.1"/>
</g>
<!-- 10&#45;&gt;9 -->
<g id="edge21" class="edge">
<title>10&#45;&gt;9</title>
<path fill="none" stroke="grey" stroke-width="2" d="M206.71,-575.82C185.97,-552.62 149.27,-509.42 124.5,-468 112.52,-447.97 102.1,-423.59 95.05,-405.41"/>
<polygon fill="grey" stroke="grey" stroke-width="2" points="98.3,-404.13 91.49,-396.02 91.76,-406.61 98.3,-404.13"/>
</g>
<!-- 10&#45;&gt;12 -->
<g id="edge28" class="edge">
<title>10&#45;&gt;12</title>
<path fill="none" stroke="grey" stroke-width="2" d="M236.49,-575.87C256.78,-551.03 294.51,-504.85 317.96,-476.14"/>
<polygon fill="grey" stroke="grey" stroke-width="2" points="320.84,-478.15 324.46,-468.19 315.42,-473.72 320.84,-478.15"/>
</g>
<!-- 11 -->
<g id="node12" class="node">
<title>11</title>
<path fill="none" stroke="#88d856" stroke-width="2" d="M263,-324C263,-324 164,-324 164,-324 158,-324 152,-318 152,-312 152,-312 152,-300 152,-300 152,-294 158,-288 164,-288 164,-288 263,-288 263,-288 269,-288 275,-294 275,-300 275,-300 275,-312 275,-312 275,-318 269,-324 263,-324"/>
<text text-anchor="middle" x="213.5" y="-303.5" font-family="sans" font-size="10.00">format_hsearch_main</text>
</g>
<!-- 11&#45;&gt;3 -->
<g id="edge12" class="edge">
<title>11&#45;&gt;3</title>
<path fill="none" stroke="grey" stroke-width="2" d="M235.75,-287.7C247.08,-278.88 261.03,-268.03 273.32,-258.47"/>
<polygon fill="grey" stroke="grey" stroke-width="2" points="275.76,-261.01 281.51,-252.1 271.47,-255.48 275.76,-261.01"/>
</g>
<!-- 12&#45;&gt;3 -->
<g id="edge13" class="edge">
<title>12&#45;&gt;3</title>
<path fill="none" stroke="grey" stroke-width="2" d="M337,-431.96C334.25,-402.45 327.72,-340 317.5,-288 315.82,-279.46 313.56,-270.27 311.34,-261.97"/>
<polygon fill="grey" stroke="grey" stroke-width="2" points="314.64,-260.76 308.6,-252.06 307.89,-262.63 314.64,-260.76"/>
</g>
<!-- 12&#45;&gt;9 -->
<g id="edge23" class="edge">
<title>12&#45;&gt;9</title>
<path fill="none" stroke="grey" stroke-width="2" d="M296.72,-437.44C248.08,-423.98 168.51,-401.97 122.17,-389.15"/>
<polygon fill="grey" stroke="grey" stroke-width="2" points="123.1,-385.77 112.53,-386.48 121.24,-392.52 123.1,-385.77"/>
</g>
<!-- 13 -->
<g id="node14" class="node">
<title>13</title>
<path fill="none" stroke="#5682d8" stroke-width="2" stroke-dasharray="5,2" d="M154,-684C154,-684 77,-684 77,-684 71,-684 65,-678 65,-672 65,-672 65,-660 65,-660 65,-654 71,-648 77,-648 77,-648 154,-648 154,-648 160,-648 166,-654 166,-660 166,-660 166,-672 166,-672 166,-678 160,-684 154,-684"/>
<text text-anchor="middle" x="115.5" y="-669" font-family="sans" font-size="10.00">prepro_reads</text>
<text text-anchor="middle" x="115.5" y="-658" font-family="sans" font-size="10.00">sample: sample2</text>
</g>
<!-- 13&#45;&gt;9 -->
<g id="edge20" class="edge">
<title>13&#45;&gt;9</title>
<path fill="none" stroke="grey" stroke-width="2" d="M113.71,-647.97C108.7,-600.19 94.48,-464.62 88.36,-406.27"/>
<polygon fill="grey" stroke="grey" stroke-width="2" points="91.84,-405.89 87.32,-396.31 84.88,-406.62 91.84,-405.89"/>
</g>
<!-- 13&#45;&gt;10 -->
<g id="edge25" class="edge">
<title>13&#45;&gt;10</title>
<path fill="none" stroke="grey" stroke-width="2" d="M141.68,-647.88C155.54,-638.81 172.74,-627.55 187.71,-617.76"/>
<polygon fill="grey" stroke="grey" stroke-width="2" points="189.77,-620.59 196.22,-612.19 185.94,-614.74 189.77,-620.59"/>
</g>
<!-- 14&#45;&gt;11 -->
<g id="edge26" class="edge">
<title>14&#45;&gt;11</title>
<path fill="none" stroke="grey" stroke-width="2" d="M209.74,-359.7C210.29,-351.98 210.95,-342.71 211.56,-334.11"/>
<polygon fill="grey" stroke="grey" stroke-width="2" points="215.06,-334.33 212.28,-324.1 208.07,-333.83 215.06,-334.33"/>
</g>
</g>
</svg>
